<svg xmlns="http://www.w3.org/2000/svg" width="632" height="395" viewBox="0 0 632 395" version="1.1"><path d="M 158.417 18.884 C 151.517 20.860, 147.876 23.181, 142.713 28.895 C 138.559 33.494, 135 43.662, 135 50.932 C 135 56.142, 139.691 75.431, 145.838 95.500 C 148.028 102.650, 153.712 121.775, 158.468 138 C 169.384 175.238, 169.014 174.228, 172.340 175.829 C 174.077 176.665, 182.057 177.486, 193.871 178.045 C 204.194 178.533, 227.459 179.848, 245.570 180.966 C 263.682 182.084, 304.813 184.562, 336.974 186.472 C 401.631 190.311, 400.139 190.069, 400.812 196.832 C 401.308 201.815, 397.781 204.585, 389.931 205.378 C 377.747 206.609, 239.975 214.815, 184.238 217.630 C 170.683 218.315, 169.578 218.982, 167.040 228.015 C 165.243 234.410, 150.115 285.564, 143.977 306 C 138.510 324.201, 135 338.740, 134.997 343.196 C 134.995 345.563, 135.966 350.779, 137.154 354.787 C 139.608 363.070, 144.757 369.815, 151.090 373.046 C 160.180 377.683, 174.585 379.221, 183.568 376.514 C 190.046 374.561, 476.381 231.287, 482.298 227.038 C 488.249 222.764, 492.558 217.307, 494.703 211.326 C 496.810 205.452, 497.119 191.457, 495.207 188.500 C 494.068 186.740, 494.008 186.921, 494.707 190 C 496.010 195.748, 495.497 205.146, 493.569 210.870 C 492.265 214.739, 490.185 217.814, 486.127 221.870 C 480.721 227.274, 474.525 230.486, 331.525 302 L 182.555 376.500 172.528 376.347 C 157.092 376.112, 148.329 372.258, 142.183 363.001 C 137.974 356.662, 136.589 351.642, 136.665 343 C 136.731 335.520, 138.180 329.635, 147.985 297 C 151.385 285.683, 157.049 266.465, 164.894 239.622 C 167.608 230.339, 170.509 222.063, 171.342 221.230 C 173.121 219.451, 182.392 218.607, 217.500 217.031 C 230.700 216.439, 248.250 215.514, 256.500 214.975 C 274.734 213.786, 313.410 211.378, 336.500 209.996 C 397.657 206.333, 396.114 206.485, 399.514 203.810 C 403.131 200.965, 403.068 193.985, 399.399 191.099 C 395.983 188.412, 396.430 188.461, 353 185.992 C 281.746 181.942, 266.435 181.052, 250 180.003 C 240.925 179.424, 220.275 178.297, 204.110 177.499 C 181.287 176.371, 174.199 175.705, 172.386 174.517 C 170.877 173.528, 169.477 170.959, 168.422 167.244 C 166.760 161.390, 162.401 146.707, 158.850 135 C 157.766 131.425, 156.254 126.250, 155.491 123.500 C 154.103 118.495, 148.621 100.218, 144.843 88 C 141.116 75.946, 136.023 54.527, 136.012 50.855 C 136.005 48.851, 136.932 44.194, 138.071 40.506 C 141.744 28.613, 150.726 21.181, 164.149 18.928 C 177.736 16.647, 181.980 17.972, 214.990 34.805 C 230.671 42.800, 247.466 51.493, 252.313 54.123 C 257.160 56.753, 262.046 59.197, 263.172 59.555 C 264.298 59.912, 274.508 65.042, 285.860 70.955 C 306.134 81.514, 347.165 102.402, 414.500 136.441 C 479.960 169.532, 485.860 173.078, 491.992 183 C 493.655 185.690, 493.988 185.922, 493.434 184 C 493.037 182.625, 491.624 180.070, 490.293 178.323 C 484.638 170.897, 477.843 167.011, 414.500 134.981 C 397.450 126.360, 370.900 112.891, 355.500 105.051 C 340.100 97.210, 312.875 83.358, 295 74.268 C 277.125 65.178, 255.300 54.033, 246.500 49.502 C 237.700 44.971, 221.275 36.514, 210 30.710 C 198.725 24.906, 186.735 19.447, 183.356 18.579 C 175.496 16.559, 166.136 16.674, 158.417 18.884" stroke="none" fill="#0f6176" fill-rule="evenodd"/><path d="M 161 19.421 C 149.982 21.858, 141.386 29.772, 138.060 40.542 C 136.927 44.210, 136.005 48.851, 136.012 50.855 C 136.023 54.527, 141.116 75.946, 144.843 88 C 148.621 100.218, 154.103 118.495, 155.491 123.500 C 156.254 126.250, 157.766 131.425, 158.850 135 C 162.401 146.707, 166.760 161.390, 168.422 167.244 C 169.477 170.959, 170.877 173.528, 172.386 174.517 C 174.199 175.705, 181.287 176.371, 204.110 177.499 C 220.275 178.297, 240.925 179.424, 250 180.003 C 266.435 181.052, 281.746 181.942, 353 185.992 C 396.430 188.461, 395.983 188.412, 399.399 191.099 C 401.489 192.743, 402 194.001, 402 197.500 C 402 205.496, 399.909 206.181, 370 207.983 C 360.925 208.530, 345.850 209.436, 336.500 209.996 C 313.410 211.378, 274.734 213.786, 256.500 214.975 C 248.250 215.514, 230.700 216.439, 217.500 217.031 C 182.392 218.607, 173.121 219.451, 171.342 221.230 C 170.509 222.063, 167.608 230.339, 164.894 239.622 C 157.049 266.465, 151.385 285.683, 147.985 297 C 138.180 329.635, 136.731 335.520, 136.665 343 C 136.589 351.642, 137.974 356.662, 142.183 363.001 C 148.329 372.258, 157.092 376.112, 172.528 376.347 L 182.555 376.500 331.525 302 C 474.525 230.486, 480.721 227.274, 486.127 221.870 C 494.219 213.782, 497.518 202.604, 494.989 191.846 C 493.203 184.252, 491.426 181.188, 485.479 175.455 C 479.630 169.815, 469.449 164.219, 414.500 136.441 C 347.165 102.402, 306.134 81.514, 285.860 70.955 C 274.508 65.042, 264.298 59.912, 263.172 59.555 C 262.046 59.197, 257.160 56.757, 252.313 54.132 C 247.466 51.507, 231.015 42.974, 215.756 35.170 C 181.786 17.795, 175.947 16.116, 161 19.421" stroke="none" fill="#049bc2" fill-rule="evenodd"/></svg>